<?xml version="1.0" encoding="UTF-8"?>
<svg id="katman_1" xmlns="http://www.w3.org/2000/svg" version="1.1" viewBox="0 0 371.96 371.82">
  <!-- Generator: Adobe Illustrator 29.8.1, SVG Export Plug-In . SVG Version: 2.1.1 Build 2)  -->
  <defs>
    <style>
      .st0 {
        fill: #fff;
      }

      .st1 {
        fill: none;
      }

      .st2 {
        fill: #231f20;
      }
    </style>
  </defs>
  <rect class="st2" y="0" width="371.82" height="371.82"/>
  <rect class="st1" x="-8.5" y="-8.5" width="666.69" height="388.83"/>
  <path class="st0" d="M333.76,185.74c0-76.48-58.11-139.4-132.58-146.81-5.05-.53-10.19-.8-15.38-.8-3.47,0-6.94.13-10.35.19-36.68,2.59-69.68,18.56-94.11,43.08-23.38,23.38-38.98,54.57-42.36,89.31-.51,4.95-.76,9.95-.76,15.03,0,3.6.13,7.18.19,10.73,5.41,76.69,69.34,137.23,147.4,137.23,40.85,0,77.85-16.58,104.59-43.37,2.15-2.15,4.21-4.38,6.21-6.65v45.54h37.17v-131.53c0-1.28-.08-2.59-.23-3.91.15-2.67.23-5.35.23-8.04ZM264.12,264.11c-20.01,19.95-47.65,32.3-78.14,32.3-61.14,0-110.68-49.56-110.68-110.68,0-30.52,12.33-58.13,32.3-78.14,20.01-19.99,47.67-32.35,78.18-32.35,61.11,0,110.68,49.56,110.68,110.68,0,30.54-12.35,58.17-32.35,78.2v-.02Z"/>
</svg>