<?xml version="1.0" encoding="UTF-8"?>
<svg id="katman_1" xmlns="http://www.w3.org/2000/svg" version="1.1" viewBox="0 0 649.68 371.82">
  <!-- Generator: Adobe Illustrator 29.8.1, SVG Export Plug-In . SVG Version: 2.1.1 Build 2)  -->
  <defs>
    <style>
      .st0 {
        fill: #231f20;
      }

      .st1 {
        fill: none;
      }
    </style>
  </defs>
  <rect class="st1" x="-8.5" y="-8.5" width="666.69" height="388.83"/>
  <g>
    <path class="st0" d="M290.49,101.96v16.37l-12.36.02s-27.44-1.02-28.05,28.16v94.26h-17.67v-94.35s-3.34-42.7,39.39-44.45h18.69Z"/>
    <rect class="st0" x="281.66" y="223.1" width="17.66" height="17.67"/>
    <path class="st0" d="M198.66,170.46c0-36.34-27.61-66.24-63-69.76-2.4-.25-4.84-.38-7.31-.38-1.65,0-3.3.06-4.92.09-17.43,1.23-33.11,8.82-44.72,20.47-11.11,11.11-18.52,25.93-20.13,42.44-.24,2.35-.36,4.73-.36,7.14,0,1.71.06,3.41.09,5.1,2.57,36.44,32.95,65.21,70.04,65.21,19.41,0,36.99-7.88,49.7-20.61,1.02-1.02,2-2.08,2.95-3.16v21.64h17.66v-62.5c0-.61-.04-1.23-.11-1.86.07-1.27.11-2.54.11-3.82ZM165.57,207.7c-9.51,9.48-22.64,15.35-37.13,15.35-29.05,0-52.59-23.55-52.59-52.59,0-14.5,5.86-27.62,15.35-37.13,9.51-9.5,22.65-15.37,37.15-15.37,29.04,0,52.59,23.55,52.59,52.59,0,14.51-5.87,27.64-15.37,37.16Z"/>
    <path class="st0" d="M455.61,170.46c0-36.34-27.61-66.24-63-69.76-2.4-.25-4.84-.38-7.31-.38-1.65,0-3.3.06-4.92.09-17.43,1.23-33.11,8.82-44.72,20.47-11.11,11.11-18.52,25.93-20.13,42.44-.24,2.35-.36,4.73-.36,7.14,0,1.71.06,3.41.09,5.1,2.57,36.44,32.95,65.21,70.04,65.21,19.41,0,36.99-7.88,49.7-20.61,1.02-1.02,2-2.08,2.95-3.16v21.64h17.66v-62.5c0-.61-.04-1.23-.11-1.86.07-1.27.11-2.54.11-3.82ZM422.52,207.7c-9.51,9.48-22.64,15.35-37.13,15.35-29.05,0-52.59-23.55-52.59-52.59,0-14.5,5.86-27.62,15.35-37.13,9.51-9.5,22.65-15.37,37.15-15.37,29.04,0,52.59,23.55,52.59,52.59,0,14.51-5.87,27.64-15.37,37.16Z"/>
    <path class="st0" d="M538.96,160.5c-19.7-5.46-36.71-10.17-36.71-23.72l.02-.19c1.19-12.34,6.54-16.51,21.19-16.51l63.77.07.07-17.7h-59.22c-30.47,0-45.91,11.93-45.91,35.44s23.5,33.16,54.21,41.95c19.62,5.61,38.15,10.91,38.15,25.17,0,12.2-7.04,18.13-21.51,18.13l-70.92-.07v17.69h70.92c26.05,0,41.61-13.83,41.61-36.99,0-27.87-29.57-36.06-55.65-43.28Z"/>
  </g>
  <g>
    <path class="st0" d="M60.12,255.42h2.98l5.93,20.92,8.32-20.92h.6l8.22,20.92,6.03-20.92h2.96l-8.34,29.02h-.54l-8.61-21.96-8.78,21.96h-.54l-8.23-29.02Z"/>
    <path class="st0" d="M128.69,255.42l13.54,29.02h-3.13l-4.57-9.55h-12.5l-4.52,9.55h-3.24l13.71-29.02h.71ZM128.32,261.59l-4.97,10.51h9.92l-4.95-10.51Z"/>
    <path class="st0" d="M163.01,255.42h2.9v26.22h11.17v2.8h-14.07v-29.02Z"/>
    <path class="st0" d="M197.96,255.42h2.9v26.22h11.17v2.8h-14.07v-29.02Z"/>
    <path class="st0" d="M259.94,260.81l-2.29,1.76c-1.26-1.64-2.78-2.89-4.55-3.74s-3.71-1.27-5.83-1.27c-2.32,0-4.46.56-6.43,1.67-1.97,1.11-3.5,2.6-4.59,4.48-1.08,1.87-1.63,3.98-1.63,6.32,0,3.54,1.21,6.49,3.64,8.86,2.43,2.37,5.49,3.55,9.19,3.55,4.06,0,7.46-1.59,10.2-4.77l2.29,1.74c-1.45,1.84-3.25,3.26-5.42,4.27-2.16,1.01-4.58,1.51-7.25,1.51-5.08,0-9.08-1.69-12.02-5.07-2.46-2.85-3.69-6.3-3.69-10.34,0-4.25,1.49-7.82,4.47-10.72s6.71-4.35,11.2-4.35c2.71,0,5.16.54,7.34,1.61s3.97,2.58,5.37,4.51Z"/>
    <path class="st0" d="M295.87,254.69c4.4,0,8.08,1.47,11.04,4.4,2.96,2.93,4.44,6.54,4.44,10.83s-1.48,7.85-4.43,10.81c-2.96,2.96-6.56,4.44-10.81,4.44s-7.94-1.47-10.9-4.42c-2.96-2.95-4.44-6.51-4.44-10.69,0-2.79.67-5.37,2.02-7.75,1.35-2.38,3.19-4.25,5.52-5.59,2.33-1.35,4.85-2.02,7.56-2.02ZM296,257.51c-2.15,0-4.18.56-6.11,1.68-1.92,1.12-3.43,2.63-4.51,4.52s-1.62,4.01-1.62,6.34c0,3.45,1.2,6.36,3.59,8.74,2.39,2.38,5.27,3.56,8.65,3.56,2.25,0,4.34-.55,6.25-1.64s3.41-2.59,4.49-4.48,1.61-4,1.61-6.32-.54-4.39-1.61-6.25c-1.07-1.86-2.59-3.35-4.54-4.47-1.95-1.12-4.02-1.68-6.21-1.68Z"/>
    <path class="st0" d="M331.24,255.42h3.16l9.62,22.42,9.78-22.42h3.16l-12.63,29.02h-.63l-12.45-29.02Z"/>
    <path class="st0" d="M378.13,255.42h16.63v2.84h-13.73v9.1h13.61v2.84h-13.61v11.41h13.61v2.84h-16.51v-29.02Z"/>
    <path class="st0" d="M416.22,255.42h5.78c3.22,0,5.41.13,6.55.4,1.72.39,3.12,1.24,4.2,2.54,1.08,1.3,1.62,2.89,1.62,4.79,0,1.58-.37,2.97-1.12,4.17-.74,1.2-1.81,2.1-3.19,2.72s-3.29.93-5.72.94l10.44,13.48h-3.59l-10.44-13.48h-1.64v13.48h-2.9v-29.02ZM419.12,258.26v9.87l5,.04c1.94,0,3.37-.18,4.3-.55s1.65-.96,2.17-1.77c.52-.81.78-1.71.78-2.71s-.26-1.86-.79-2.65c-.53-.79-1.22-1.36-2.08-1.71s-2.28-.51-4.27-.51h-5.12Z"/>
    <path class="st0" d="M456.46,255.42h2.9v29.02h-2.9v-29.02Z"/>
    <path class="st0" d="M482.31,284.44v-29.02h.63l19.32,22.25v-22.25h2.86v29.02h-.65l-19.16-21.98v21.98h-3Z"/>
    <path class="st0" d="M556.47,260.29l-2.25,2.13c-1.62-1.59-3.39-2.8-5.32-3.62-1.93-.82-3.81-1.23-5.63-1.23-2.28,0-4.44.56-6.5,1.68s-3.65,2.63-4.79,4.55c-1.13,1.91-1.7,3.94-1.7,6.07s.59,4.26,1.76,6.22c1.17,1.97,2.79,3.51,4.85,4.64,2.07,1.12,4.33,1.69,6.79,1.69,2.99,0,5.51-.84,7.58-2.53s3.29-3.87,3.67-6.55h-9.25v-2.8h12.51c-.03,4.49-1.36,8.05-4,10.68-2.64,2.64-6.17,3.96-10.59,3.96-5.37,0-9.62-1.83-12.75-5.49-2.41-2.82-3.61-6.07-3.61-9.77,0-2.75.69-5.31,2.07-7.67,1.38-2.37,3.28-4.22,5.68-5.55s5.13-2,8.17-2c2.46,0,4.78.44,6.95,1.33,2.17.89,4.29,2.31,6.35,4.27Z"/>
    <path class="st0" d="M577,279.04l2.47-1.48c1.74,3.2,3.74,4.79,6.02,4.79.97,0,1.89-.23,2.74-.68.85-.45,1.51-1.06,1.95-1.83.45-.76.67-1.57.67-2.43,0-.97-.33-1.93-.99-2.86-.91-1.29-2.57-2.84-4.97-4.66-2.42-1.83-3.93-3.15-4.52-3.97-1.03-1.37-1.54-2.85-1.54-4.44,0-1.26.3-2.41.91-3.45.6-1.04,1.46-1.86,2.56-2.46,1.1-.6,2.29-.9,3.58-.9,1.37,0,2.65.34,3.84,1.02s2.45,1.92,3.78,3.74l-2.37,1.79c-1.09-1.45-2.02-2.4-2.79-2.86-.77-.46-1.61-.69-2.52-.69-1.17,0-2.13.36-2.87,1.07-.74.71-1.11,1.59-1.11,2.62,0,.63.13,1.24.39,1.83.26.59.74,1.24,1.44,1.93.38.37,1.63,1.33,3.75,2.9,2.51,1.85,4.24,3.51,5.17,4.95.93,1.45,1.4,2.9,1.4,4.36,0,2.11-.8,3.93-2.4,5.49-1.6,1.55-3.54,2.33-5.83,2.33-1.76,0-3.36-.47-4.79-1.41-1.43-.94-2.76-2.52-3.97-4.73Z"/>
  </g>
</svg>